<?xml version="1.0" standalone="no"?>
<!DOCTYPE svg PUBLIC "-//W3C//DTD SVG 20010904//EN"
 "http://www.w3.org/TR/2001/REC-SVG-20010904/DTD/svg10.dtd">
<svg version="1.0" xmlns="http://www.w3.org/2000/svg"
 width="500.000000pt" height="500.000000pt" viewBox="0 0 500.000000 500.000000"
 preserveAspectRatio="xMidYMid meet">

<g transform="translate(0.000000,500.000000) scale(0.100000,-0.100000)"
fill="#000000" stroke="none">
<path d="M0 2500 l0 -2500 1198 0 1198 0 -7 53 c-12 86 -10 266 5 357 30 186
94 318 211 436 167 170 306 202 665 153 214 -29 502 -31 669 -5 143 22 315 73
434 130 51 25 149 84 219 133 139 98 210 134 314 159 38 10 75 18 82 20 9 3
12 70 12 296 l-1 293 -22 -30 c-246 -333 -658 -564 -1187 -665 -317 -60 -656
-60 -916 0 -429 99 -782 382 -930 743 -87 214 -114 456 -74 669 41 215 199
511 404 754 98 117 184 193 311 276 300 196 635 291 1030 291 262 0 476 -34
619 -98 354 -158 592 -322 722 -499 l44 -58 0 796 0 796 -2500 0 -2500 0 0
-2500z"/>
<path d="M4053 3510 c-185 -39 -305 -199 -306 -405 0 -154 48 -260 178 -391
146 -148 300 -222 481 -232 235 -12 359 99 358 323 0 79 -5 100 -35 176 -97
240 -291 455 -463 513 -58 20 -160 27 -213 16z m196 -86 c110 -32 186 -139
219 -306 46 -236 -89 -398 -334 -398 -52 0 -82 6 -121 25 -29 13 -53 26 -53
28 0 2 25 2 56 -1 93 -8 158 13 214 66 59 58 74 106 67 212 -13 183 -106 299
-242 300 -64 0 -113 -14 -159 -45 -20 -13 -36 -22 -36 -20 0 3 17 23 37 46 82
91 229 130 352 93z"/>
<path d="M2660 3190 c-71 -26 -151 -81 -201 -139 -126 -146 -226 -507 -189
-686 23 -111 78 -195 159 -243 41 -24 55 -27 141 -27 80 0 105 5 157 27 288
122 487 438 451 716 -18 140 -111 277 -229 338 -74 38 -207 44 -289 14z m263
-94 c68 -33 101 -65 41 -40 -28 12 -59 15 -111 12 -101 -7 -156 -41 -198 -123
-27 -52 -30 -68 -29 -144 1 -123 23 -191 83 -251 75 -75 177 -89 289 -40 l47
21 -34 -35 c-18 -19 -61 -47 -94 -61 -51 -23 -75 -28 -151 -28 -79 -1 -98 3
-142 26 -28 14 -69 46 -90 70 -58 66 -76 122 -81 257 -4 101 -2 122 17 173 51
135 160 200 321 194 59 -3 90 -10 132 -31z"/>
<path d="M3481 2634 c-122 -36 -169 -75 -155 -129 13 -51 133 -134 217 -149
l37 -7 0 -60 c0 -104 -60 -183 -162 -214 -122 -36 -223 -2 -272 94 -9 17 -21
31 -26 31 -22 0 -18 -21 13 -66 22 -34 49 -57 87 -77 49 -26 62 -28 127 -25
78 5 161 39 202 82 12 13 32 49 45 80 l23 55 21 -29 c56 -75 171 -106 278 -75
114 32 179 102 191 204 5 43 3 51 -11 51 -11 0 -16 -9 -16 -32 -1 -163 -232
-265 -375 -167 -37 26 -82 93 -91 136 -5 26 -2 33 28 51 39 25 77 70 107 129
25 50 26 66 5 98 -33 51 -139 59 -273 19z"/>
<path d="M3117 753 c-16 -4 -18 -11 -12 -51 3 -26 8 -54 11 -63 3 -13 -9 -18
-65 -28 -39 -6 -74 -11 -79 -11 -5 0 -13 21 -17 46 -10 66 -14 74 -42 74 -23
0 -24 -2 -18 -40 7 -43 13 -38 -68 -55 -18 -3 -25 1 -33 23 l-10 27 -18 -33
c-25 -48 -18 -78 16 -74 21 2 27 -2 30 -20 2 -17 10 -23 28 -23 21 0 25 4 22
27 -2 25 1 27 42 33 48 8 66 2 66 -20 0 -7 12 -15 28 -17 19 -2 28 -9 30 -24
2 -17 -4 -23 -29 -28 -54 -11 -68 -7 -75 17 -4 19 -11 23 -30 19 -36 -7 -29
-46 9 -50 15 -2 27 -7 27 -12 0 -5 3 -15 6 -23 4 -12 -6 -17 -50 -22 -31 -4
-56 -11 -56 -15 0 -20 52 -41 85 -34 33 6 35 4 35 -19 0 -26 17 -50 49 -67 17
-9 17 -5 5 67 -8 42 -11 79 -9 82 3 2 35 9 72 15 64 11 68 13 71 40 3 26 2 28
-27 21 -28 -6 -31 -4 -31 20 0 27 4 30 62 40 33 5 37 3 40 -17 2 -17 10 -23
28 -23 21 0 25 4 22 27 -2 21 2 27 20 30 18 2 23 9 23 31 -1 19 4 27 17 27 23
0 22 19 -2 50 -15 18 -22 22 -28 13 -4 -7 -29 -17 -54 -22 l-47 -8 -6 38 c-4
22 -10 38 -13 38 -4 -1 -15 -3 -25 -6z m108 -134 c7 -21 -7 -39 -32 -39 -18 0
-27 41 -12 51 23 14 37 10 44 -12z"/>
<path d="M3180 737 c0 -20 4 -24 25 -19 23 4 37 32 16 32 -5 0 -16 3 -25 6
-12 5 -16 0 -16 -19z"/>
<path d="M2833 703 c-7 -2 -13 -16 -13 -30 0 -19 4 -24 16 -19 9 3 20 6 25 6
5 0 9 11 9 25 0 24 -11 29 -37 18z"/>
<path d="M3033 696 c-8 -15 -13 -16 -32 -6 -28 14 -32 11 -24 -19 3 -13 11
-20 19 -17 8 3 14 -1 14 -10 0 -11 6 -14 23 -8 31 9 31 10 21 46 -9 30 -11 31
-21 14z"/>
<path d="M3283 573 c2 -22 -3 -29 -21 -31 -19 -3 -23 -9 -20 -30 2 -22 -2 -28
-19 -30 -18 -3 -23 -10 -23 -32 0 -26 -3 -28 -55 -35 -30 -3 -57 -11 -61 -16
-8 -13 16 -149 26 -149 17 0 38 47 33 74 -6 30 8 46 42 46 25 0 65 57 65 92 0
20 6 27 23 30 17 2 21 9 19 31 -2 18 2 27 12 27 13 0 26 20 26 41 0 5 -11 9
-24 9 -21 0 -24 -5 -23 -27z"/>
<path d="M2788 513 c-11 -3 -18 -14 -18 -29 0 -19 5 -24 25 -24 21 0 25 5 25
30 0 17 -3 29 -7 29 -5 -1 -16 -3 -25 -6z"/>
</g>
</svg>
